<svg focusable="false" viewBox="0 0 24 24" xmlns="http://www.w3.org/2000/svg"><path d="M0 0h24v24H0V0z" fill="none"></path><path d="M20.08 15.03l-.08.08v3.87c0 .44-.28.8-.67.93L12.41 13l2.2-2.2c-.36-.58-.71-1.18-1.02-1.81L4 18.58V4.99a1 1 0 0 1 1-1h7.57c.09-.72.29-1.39.58-2H5c-1.64 0-3 1.36-3 3v13.99c0 1.64 1.36 3 3 3h14a3 3 0 0 0 3-2.99v-6.21a27.8 27.8 0 0 1-1.92 2.25zM12 19.99H5.41l5.58-5.58 5.57 5.57H12v.01zM19 0c-3 0-5 1.99-5 4.99 0 3.82 5 9 5 9s5-5.18 5-9c0-3-2-4.99-5-4.99zm0 6.74c-.96 0-1.75-.79-1.75-1.75s.79-1.75 1.75-1.75 1.75.79 1.75 1.75-.79 1.75-1.75 1.75z"></path></svg>